<?xml version="1.0" encoding="utf-8"?>
<!-- Generator: Adobe Illustrator 25.4.1, SVG Export Plug-In . SVG Version: 6.00 Build 0)  -->
<svg version="1.1" id="圖層_1" xmlns="http://www.w3.org/2000/svg" xmlns:xlink="http://www.w3.org/1999/xlink" x="0px" y="0px"
	 viewBox="0 0 37 42" style="enable-background:new 0 0 37 42;" xml:space="preserve">
<style type="text/css">
	.st0{clip-path:url(#SVGID_00000113322788900714331030000002668135978731008418_);}
	.st1{fill:#BE97FF;}
	.st2{fill:#7C2CFF;}
	.st3{clip-path:url(#SVGID_00000035516171732949161500000013644261410697282960_);}
	.st4{fill:#FFFFFF;}
	.st5{fill:url(#SVGID_00000037652406575799510200000015976255296141921464_);}
	.st6{fill:url(#SVGID_00000177476545253083082030000007435758194509466810_);}
	.st7{fill:url(#SVGID_00000152985741859072229830000011729476004414917766_);}
	.st8{fill:url(#SVGID_00000031206604766002049260000009371712287768473744_);}
	.st9{fill:#7D64FF;}
	.st10{fill:url(#SVGID_00000160899874952363750720000005693820002798936962_);}
	.st11{fill:url(#SVGID_00000112633655012674594040000015834431913971816330_);}
	.st12{fill:url(#SVGID_00000174567210243374303640000001689013384041309865_);}
</style>
<g>
	<defs>
		<rect id="SVGID_1_" x="-67" y="-3.6" width="37" height="42"/>
	</defs>
	<clipPath id="SVGID_00000116920243461989232130000009650336049345667241_">
		<use xlink:href="#SVGID_1_"  style="overflow:visible;"/>
	</clipPath>
	<g id="reveal-symbol" style="clip-path:url(#SVGID_00000116920243461989232130000009650336049345667241_);">
		<g id="reveal-symbol-2" transform="translate(-84.046 -21.087)">
			<path id="Path_23" class="st1" d="M17.6,40.8L35.4,22l17.9,19L35.4,58.3L17.6,40.8z"/>
			<path id="Path_22" class="st2" d="M17.6,36.8L35.4,18l17.9,19L35.4,54.3L17.6,36.8z"/>
			<g>
				<defs>
					<path id="SVGID_00000053536357580755970010000014148857346332487355_" d="M45.3,48.8l-4.6-6.7c2.7-1.1,4.4-3.7,4.3-6.5
						c0-4.6-3.5-7.5-9-7.5h-9v20.7h4.8v-5.8h4.4l4,5.8H45.3z M40.1,35.6c0,2.2-1.5,3.6-4.4,3.6h-3.9V32h3.9
						C38.6,32,40.1,33.4,40.1,35.6z"/>
				</defs>
				<clipPath id="SVGID_00000074436766951517834340000011216550114567123880_">
					<use xlink:href="#SVGID_00000053536357580755970010000014148857346332487355_"  style="overflow:visible;"/>
				</clipPath>
				
					<g id="Mask_Group_1" transform="translate(0.913 6.031)" style="clip-path:url(#SVGID_00000074436766951517834340000011216550114567123880_);">
					<path id="Path_21" class="st4" d="M16.6,29.1l18-16.7l18,16.7l-18,16.7L16.6,29.1z"/>
				</g>
			</g>
			<path id="Path_20" class="st1" d="M35.4,18.1l17.9,19.1l-22.9-6.8L35.4,18.1z"/>
		</g>
	</g>
</g>
<g>
	
		<linearGradient id="SVGID_00000089551620551188692230000002732966651183686276_" gradientUnits="userSpaceOnUse" x1="-192.2703" y1="151.1626" x2="-199.3492" y2="135.6282" gradientTransform="matrix(-1 0 0 -1 -177.5924 162.0264)">
		<stop  offset="0" style="stop-color:#00FFDD"/>
		<stop  offset="9.254539e-02" style="stop-color:#04F9DE"/>
		<stop  offset="0.2178" style="stop-color:#11E8E0"/>
		<stop  offset="0.3618" style="stop-color:#26CBE4"/>
		<stop  offset="0.5198" style="stop-color:#43A4E9"/>
		<stop  offset="0.6893" style="stop-color:#6871F0"/>
		<stop  offset="0.8655" style="stop-color:#9534F8"/>
		<stop  offset="1" style="stop-color:#BB00FF"/>
	</linearGradient>
	<path style="fill:url(#SVGID_00000089551620551188692230000002732966651183686276_);" d="M16.5,9.3c1.3,0,2.4,0.3,3.2,1.8l6.1,13.6
		c0.9,2.7-3.3,6.8-4.2,5.1c-2.7-5.5-8.4-17.2-9.1-18.5c-0.9-1.6-3-1-3-1L16.5,9.3z"/>
	
		<linearGradient id="SVGID_00000140718562974336993270000003444297994331177120_" gradientUnits="userSpaceOnUse" x1="-202.9441" y1="150.9033" x2="-210.1541" y2="134.5746" gradientTransform="matrix(-1 0 0 -1 -177.5924 162.0264)">
		<stop  offset="0" style="stop-color:#00FFDD"/>
		<stop  offset="8.505848e-02" style="stop-color:#06F6DE"/>
		<stop  offset="0.2214" style="stop-color:#18DFE1"/>
		<stop  offset="0.3921" style="stop-color:#34B9E6"/>
		<stop  offset="0.5903" style="stop-color:#5B84ED"/>
		<stop  offset="0.8088" style="stop-color:#8C41F6"/>
		<stop  offset="1" style="stop-color:#BB00FF"/>
	</linearGradient>
	<path style="fill:url(#SVGID_00000140718562974336993270000003444297994331177120_);" d="M27.1,9.3c1.3,0,2.5,0.7,3.2,1.8l5.9,13.7
		c0.7,1.1,0.1,2-0.6,3.1l-4.7,0.2c0,0-7.1-15.7-7.7-16.8c-0.9-1.6-3-1-3-1L27.1,9.3z"/>
	
		<linearGradient id="SVGID_00000174561186992484924020000005454708708512423869_" gradientUnits="userSpaceOnUse" x1="-185.1128" y1="133.898" x2="-179.9968" y2="130.7178" gradientTransform="matrix(-1 0 0 -1 -177.5924 162.0264)">
		<stop  offset="0" style="stop-color:#00FFDD"/>
		<stop  offset="1" style="stop-color:#BB00FF"/>
	</linearGradient>
	<path style="fill:url(#SVGID_00000174561186992484924020000005454708708512423869_);" d="M2.8,30c0.7,1.1,1.2,2.6,2.5,2.6h1.3h1.1
		c0.9,0,1.5-1,1.1-1.8c-1.1-2.1-2.3-4-2.4-4.2c-1.6,0-2.8,0-3.7,0C-0.1,26.6,2.8,30,2.8,30z"/>
	
		<linearGradient id="SVGID_00000141426055541707366460000015978457881671585683_" gradientUnits="userSpaceOnUse" x1="-180.3024" y1="130.9602" x2="-188.923" y2="151.5171" gradientTransform="matrix(-1 0 0 -1 -177.5924 162.0264)">
		<stop  offset="0" style="stop-color:#E32BFF"/>
		<stop  offset="1" style="stop-color:#002BFF"/>
	</linearGradient>
	<path style="fill:url(#SVGID_00000141426055541707366460000015978457881671585683_);" d="M9.5,9.3c-1.3,0-2.6,0.3-3.2,1.8L0.7,24.7
		c-0.5,1.2-0.5,2.6,0.2,3.7l1.5,2.5c0,0,1,1.8,2.8,1.8c-0.8-0.5-1.2-1.1-0.3-2.9c2.7-5.5,8-17.2,8.6-18.5c1.1-2,3-2,3-2H9.5z"/>
	<path class="st9" d="M20.4,28.4"/>
	
		<linearGradient id="SVGID_00000053529510330402280410000000033557499974799284_" gradientUnits="userSpaceOnUse" x1="-203.1305" y1="133.0217" x2="-214.3765" y2="133.3677" gradientTransform="matrix(-1 0 0 -1 -177.5924 162.0264)">
		<stop  offset="0" style="stop-color:#E32BFF"/>
		<stop  offset="1" style="stop-color:#002BFF"/>
	</linearGradient>
	<path style="fill:url(#SVGID_00000053529510330402280410000000033557499974799284_);" d="M34.6,30.9l1.5-2.5h0
		c0.7-1.1,0.7-2.5,0-3.6c0,0,0.7,1.8-2.1,1.8c-0.9,0-1.5,0-2.1,0c-1.3,0-2.4,0.7-3,1.9c-0.3,0.7-0.8,1.5-1.2,2.3
		c-0.4,0.9,0.2,1.9,1.1,1.9h2.6C32.8,32.7,34,32,34.6,30.9z"/>
	
		<linearGradient id="SVGID_00000042715228056081420710000014091618903128955061_" gradientUnits="userSpaceOnUse" x1="-202.8039" y1="136.4282" x2="-191.5254" y2="130.7889" gradientTransform="matrix(-1 0 0 -1 -177.5924 162.0264)">
		<stop  offset="0" style="stop-color:#00FFDD"/>
		<stop  offset="1" style="stop-color:#BB00FF"/>
	</linearGradient>
	<path style="fill:url(#SVGID_00000042715228056081420710000014091618903128955061_);" d="M12.8,26.6c0.7,0,7.5,0,11.4,0
		c1,0,1.8-0.7,1.5-1.9c0.5,1.2,0.5,2.6-0.2,3.7l-1.5,2.5c0,0-1,1.8-2.8,1.8h-4.6h-1.3c-1.3,0-1.8-1.5-2.5-2.6
		C12.9,30,10,26.6,12.8,26.6z"/>
	
		<linearGradient id="SVGID_00000176040278668209449330000014046652535667719300_" gradientUnits="userSpaceOnUse" x1="-190.4008" y1="132.1124" x2="-199.9054" y2="152.4482" gradientTransform="matrix(-1 0 0 -1 -177.5924 162.0264)">
		<stop  offset="0" style="stop-color:#E32BFF"/>
		<stop  offset="1" style="stop-color:#002BFF"/>
	</linearGradient>
	<path style="fill:url(#SVGID_00000176040278668209449330000014046652535667719300_);" d="M20.1,9.3c-1.3,0-2.4,0.3-3.2,1.8
		l-6.1,13.6c-0.5,1.2-0.5,2.6,0.2,3.7l1.5,2.5c0,0,1,1.8,2.8,1.8c-0.8-0.5-1.2-1.1-0.3-2.9c2.7-5.5,8.4-17.2,9.1-18.5
		c0.9-1.6,3-2,3-2H20.1z"/>
</g>
</svg>
