<?xml version="1.0" encoding="utf-8"?>
<!-- Generator: Adobe Illustrator 25.4.1, SVG Export Plug-In . SVG Version: 6.00 Build 0)  -->
<svg version="1.1" id="圖層_1" xmlns="http://www.w3.org/2000/svg" xmlns:xlink="http://www.w3.org/1999/xlink" width="93" height="24" x="0px" y="0px"
	 viewBox="0 0 93 24" style="enable-background:new 0 0 93 24;" xml:space="preserve">
<style type="text/css">
	.st0{fill:none;}
	.st1{fill:#7C2CFF;}
	.st2{enable-background:new    ;}
	.st3{fill:#FFFFFF;}
	.st4{fill:#BE97FF;}
</style>
<rect class="st0" width="93" height="24"/>
<path id="Path_6" class="st1" d="M0,0h75.1l17.4,15.5V24H0V0z"/>
<g class="st2">
	<path class="st3" d="M11.4,6.1l2.2,8.6l2.2-8.6H19v11.8h-2.4v-3.2l0.2-4.9l-2.4,8.1h-1.6l-2.4-8.1l0.2,4.9v3.2H8.3V6.1H11.4z"/>
	<path class="st3" d="M23.4,17.9H21V6.1h2.4V17.9z"/>
	<path class="st3" d="M29,13.6h-1.2v4.3h-2.4V6.1h3.8c1.2,0,2.1,0.3,2.8,0.9s1,1.5,1,2.6c0,1.6-0.6,2.7-1.7,3.3l2.1,4.8v0.1h-2.6
		L29,13.6z M27.8,11.6h1.4c0.5,0,0.8-0.2,1.1-0.5c0.2-0.3,0.4-0.7,0.4-1.3c0-1.2-0.5-1.8-1.4-1.8h-1.4v3.6H27.8z"/>
	<path class="st3" d="M43,13.1c0,1.6-0.4,2.8-1.1,3.7c-0.8,0.9-1.8,1.3-3.1,1.3s-2.4-0.4-3.1-1.3c-0.8-0.9-1.1-2.1-1.2-3.7v-2
		c0-1.6,0.4-2.9,1.1-3.8c0.8-0.9,1.8-1.4,3.1-1.4s2.4,0.4,3.1,1.3c0.8,1,1.2,2.2,1.2,3.8V13.1z M40.6,11.1c0-1.1-0.2-1.9-0.5-2.4
		s-0.8-0.8-1.4-0.8c-0.6,0-1.1,0.3-1.4,0.8C37,9.2,36.9,9.9,36.8,11v2.1c0,1,0.2,1.8,0.5,2.3s0.8,0.7,1.4,0.7c0.6,0,1.1-0.2,1.4-0.7
		c0.3-0.5,0.5-1.2,0.5-2.2C40.6,13.2,40.6,11.1,40.6,11.1z"/>
	<path class="st3" d="M51,15.9h4.9v2h-7.7v-1.4L53,8.1h-4.9v-2h7.6v1.4L51,15.9z"/>
	<path class="st3" d="M65.5,13.1c0,1.6-0.4,2.8-1.1,3.7c-0.7,0.9-1.8,1.3-3.1,1.3s-2.4-0.4-3.1-1.3c-0.8-0.9-1.1-2.1-1.2-3.7v-2
		c0-1.6,0.4-2.9,1.1-3.8c0.8-0.9,1.8-1.4,3.1-1.4s2.4,0.4,3.1,1.3c0.8,0.9,1.1,2.2,1.2,3.8V13.1z M63.1,11.1c0-1.1-0.2-1.9-0.5-2.4
		s-0.8-0.8-1.4-0.8c-0.6,0-1.1,0.3-1.4,0.8c-0.3,0.5-0.5,1.3-0.5,2.3v2.1c0,1,0.2,1.8,0.5,2.3s0.8,0.7,1.4,0.7
		c0.6,0,1.1-0.2,1.4-0.7c0.3-0.5,0.5-1.2,0.5-2.2V11.1z"/>
	<path class="st3" d="M75.5,17.9h-2.4l-3.5-7.8v7.8h-2.4V6.1h2.4l3.5,7.8V6.1h2.4V17.9z"/>
	<path class="st3" d="M83.5,12.8h-3.7v3.1h4.4v2h-6.8V6.1L82.3,7l1.9,1.1h-4.4v2.8h3.7V12.8z"/>
</g>
<path id="Path_7" class="st4" d="M75.2,0l17.3,15.1L71.2,6.4L75.2,0z"/>
</svg>
